<svg width={110} height={86} xmlns="http://www.w3.org/2000/svg"><g fill="none" fillRule="evenodd"><g fillOpacity=".7"><path d="M50.947 68.312h-30.68a2.028 2.028 0 01-2.023-2.022V55.385c0-1.112.91-2.021 2.023-2.021h30.68c1.111 0 2.021.909 2.021 2.02V66.29c0 1.112-.91 2.022-2.022 2.022" fill="#FFD42F" /><path d="M88.344 68.312H57.665a2.028 2.028 0 01-2.023-2.022V55.385c0-1.112.91-2.021 2.023-2.021h30.68c1.111 0 2.021.909 2.021 2.02V66.29c0 1.112-.91 2.022-2.022 2.022" fill="#FFEEB7" /><path d="M50.947 32.802h-30.68a2.028 2.028 0 01-2.023-2.022V19.876c0-1.112.91-2.022 2.023-2.022h30.68c1.111 0 2.021.91 2.021 2.022V30.78c0 1.112-.91 2.022-2.022 2.022M57.748 32.802a2.028 2.028 0 01-2.023-2.022V19.876c0-1.112.91-2.022 2.023-2.022h30.679c1.111 0 2.021.91 2.021 2.022V30.78c0 1.112-.91 2.022-2.021 2.022h-30.68zM70.182 50.557h-30.68a2.028 2.028 0 01-2.022-2.022V37.63c0-1.112.91-2.022 2.022-2.022h30.68c1.112 0 2.022.91 2.022 2.022v10.904c0 1.112-.91 2.022-2.022 2.022" fill="#FFD42F" /><path d="M107.662 50.557h-30.68a2.028 2.028 0 01-2.022-2.022V37.63c0-1.112.91-2.022 2.022-2.022h30.68c1.112 0 2.022.91 2.022 2.022v10.904c0 1.112-.91 2.022-2.022 2.022M70.182 15.047h-30.68a2.028 2.028 0 01-2.022-2.022V2.121C37.48 1.01 38.39.1 39.502.1h30.68c1.112 0 2.022.91 2.022 2.022v10.904c0 1.112-.91 2.022-2.022 2.022M2.022 50.557A2.028 2.028 0 010 48.535V37.63c0-1.112.91-2.022 2.022-2.022h30.68c1.112 0 2.022.91 2.022 2.022v10.904c0 1.112-.91 2.022-2.022 2.022H2.022z" fill="#FFEEB7" /><path d="M32.702 15.047H2.022A2.028 2.028 0 010 13.025V2.121C0 1.01.91.1 2.022.1h30.68c1.112 0 2.022.91 2.022 2.022v10.904c0 1.112-.91 2.022-2.022 2.022" fill="#FFD42F" /></g><path d="M66.639 81.325c0 2.389-6.187 4.325-13.819 4.325-7.633 0-13.82-1.936-13.82-4.325C39 78.936 45.187 77 52.82 77c7.632 0 13.819 1.936 13.819 4.325" fill="#E6E6E6" /><path d="M28 20.985C28 53.035 41.18 61.409 52.999 69 64.817 61.41 78 53.034 78 20.985L52.999 6 28 20.985z" fillOpacity=".8" fill="#FFF" /><path d="M53.27 11l21.27 12.709c0 27.179-11.214 34.281-21.27 40.719V11z" fill="#91DDF8" /><path d="M53.27 11L32 23.709c0 27.179 11.214 34.281 21.27 40.719V11z" fill="#009DD6" /><path fill="#FFD42F" d="M90 2l-.957 2.69-2.579-1.226 1.226 2.58L85 7l2.69.957-1.226 2.579 2.579-1.226.956 2.69.958-2.69 2.58 1.226-1.227-2.58L95 7l-2.69-.957 1.227-2.579-2.58 1.226z" /><path fill="#FFEAA5" d="M100.426 10.614L98.88 9.88l.735 1.547L98 12l1.614.574-.735 1.547 1.547-.735L101 15l.575-1.614 1.548.735-.737-1.547L104 12l-1.614-.574.737-1.547-1.548.735L101 9zM3.235 61.153l-2.064-.98.982 2.062L0 63l2.153.765-.982 2.064 2.064-.981L4.001 67l.764-2.152 2.064.98-.982-2.063L8 63l-2.153-.765.982-2.063-2.064.981L4 59z" /><path fill="#FFD42F" d="M10.426 72.614l-1.548-.736.736 1.547L8 74l1.614.574-.736 1.546 1.548-.734L11 77l.574-1.614 1.547.734-.736-1.546L14 74l-1.615-.575.736-1.547-1.547.736L11 71z" /></g></svg>
